<svg xmlns="http://www.w3.org/2000/svg" width="2500" height="2500" viewBox="0 0 192.756 192.756"><g fill-rule="evenodd" clip-rule="evenodd"><path fill="#fff" d="M0 0h192.756v192.756H0V0z"/><path fill="#BFBFBF" d="M58.75 103.115l15.549-51.269h13.874l-15.55 51.269H58.75zM52.548 51.86l-12.48 21.733c-3.177 5.692-5.034 8.567-5.927 12.164h-.19c.221-4.56-.415-10.158-.475-13.322L32.098 51.86H8.744l-.24 1.379c6 0 9.558 3.014 10.537 9.179l4.552 40.697h14.373L67.028 51.86h-14.48zM160.439 103.115l-.383-7.625-17.324-.014-3.543 7.638h-15.062l27.311-51.171h18.488l4.625 51.171h-14.112v.001zm-1.591-30.242c-.154-3.789-.283-8.932-.025-12.044h-.205c-.844 2.545-4.471 10.188-6.066 13.947l-5.162 11.238h12.164l-.706-13.141zM102.738 104.572c-9.795 0-16.295-3.107-20.936-5.877l6.609-10.093c4.166 2.33 7.437 5.019 14.963 5.019 2.42 0 4.752-.629 6.076-2.922 1.93-3.335-.445-5.129-5.865-8.197l-2.676-1.74c-8.034-5.49-11.509-10.704-7.727-19.806 2.42-5.822 8.803-10.235 19.333-10.235 7.262 0 14.07 3.141 18.037 6.21l-7.598 8.911c-3.871-3.131-7.08-4.715-10.752-4.715-2.928 0-5.152 1.129-5.92 2.652-1.445 2.863.467 4.815 4.689 7.436l3.182 2.024c9.754 6.152 12.078 12.603 9.633 18.634-4.204 10.381-12.436 12.699-21.048 12.699zM21.234 147.705c35.876-15.375 86.215-29.311 152.885-15.357l.699-16.91c-70.34-7.68-120.812 14.723-153.584 30.6v1.667zM178.346 59.776h-.914v-5.558h2.109c1.342 0 2.027.47 2.027 1.598 0 1.006-.619 1.422-1.451 1.516l1.557 2.444h-1.033l-1.436-2.376h-.859v2.376zm1.019-3.155c.686 0 1.289-.067 1.289-.873 0-.671-.658-.752-1.207-.752h-1.102v1.625h1.02zm-.027 5.303c-2.885 0-4.939-2.161-4.939-5.021 0-3.021 2.281-5.021 4.939-5.021 2.633 0 4.914 2 4.914 5.021 0 3.02-2.281 5.021-4.914 5.021zm0-9.169c-2.174 0-3.865 1.704-3.865 4.148 0 2.282 1.477 4.148 3.865 4.148 2.148 0 3.84-1.691 3.84-4.148 0-2.444-1.692-4.148-3.84-4.148z"/></g></svg>